<svg width="2563" height="826" viewBox="0 0 2563 826" fill="none" xmlns="http://www.w3.org/2000/svg">
<g clip-path="url(#clip0_324_43)">
<path d="M1374.31 327.318C1388.99 321.443 1405.32 314.823 1433.93 315.356C1465.65 315.951 1487.96 322.143 1500.84 335.711C1505.5 340.189 1508.84 345.858 1510.5 352.103C1512.35 358.658 1513.28 367.8 1513.28 379.528V462.347C1513.28 487.505 1518.57 497.882 1521.57 504.78H1467.73L1461.86 489.255C1455.88 494.53 1436.33 508.921 1409.78 508.921C1401.27 508.921 1381.71 506.486 1367.18 490.812C1361.87 485.087 1350.11 471.302 1350.11 446.134C1350.11 420.849 1364.59 398.626 1391.5 389.21C1400.02 386.246 1409.45 384.751 1419.78 384.725C1437.25 384.725 1448.36 392.145 1458.76 399.21V363.998C1458.76 352.273 1456.23 344.167 1451.18 339.68C1446.12 335.192 1437.73 332.95 1426 332.954C1400.23 332.954 1386.34 350.924 1373.2 363.314L1368.37 363.998C1368.37 363.998 1369.48 343.793 1371.06 332.871C1371.53 329.636 1371.99 328.274 1374.31 327.318ZM1458.07 416.096C1454.63 412.739 1450.55 410.095 1446.09 408.314C1441.52 406.396 1436.63 405.399 1431.68 405.38C1423.59 405.38 1417.05 408.887 1412.07 415.902C1407.09 422.916 1404.6 432.634 1404.61 445.055C1404.61 457.243 1407.2 466.844 1412.39 473.859C1417.58 480.873 1424.7 484.381 1433.75 484.381C1445.56 484.381 1453.2 475.187 1458.05 469.206L1458.07 416.096Z" fill="#001556"/>
<path d="M1852.19 327.318C1866.88 321.443 1883.2 314.823 1911.81 315.356C1943.53 315.951 1965.84 322.143 1978.72 335.711C1983.38 340.187 1986.72 345.857 1988.38 352.103C1990.23 358.658 1991.16 367.8 1991.16 379.528V462.347C1991.16 487.505 1996.45 497.882 1999.44 504.78H1945.63L1939.76 489.255C1933.79 494.553 1914.23 508.921 1887.68 508.921C1879.17 508.921 1859.62 506.486 1845.08 490.812C1839.77 485.087 1828.01 471.302 1828.01 446.134C1828.01 420.849 1842.49 398.626 1869.4 389.21C1877.92 386.246 1887.35 384.751 1897.69 384.725C1915.15 384.725 1926.26 392.145 1936.67 399.21V363.998C1936.67 352.273 1934.14 344.167 1929.07 339.68C1924.01 335.192 1915.62 332.95 1903.89 332.954C1878.13 332.954 1864.25 350.924 1851.1 363.314L1846.27 363.998C1846.27 363.998 1847.38 343.793 1848.95 332.871C1849.42 329.636 1849.88 328.274 1852.19 327.318ZM1935.95 416.096C1932.51 412.74 1928.43 410.096 1923.97 408.314C1919.41 406.398 1914.51 405.4 1909.56 405.38C1901.46 405.38 1894.93 408.887 1889.95 415.902C1884.97 422.916 1882.49 432.634 1882.49 445.055C1882.49 457.243 1885.08 466.844 1890.27 473.859C1895.45 480.873 1902.57 484.381 1911.62 484.381C1923.44 484.381 1931.07 475.187 1935.93 469.206L1935.95 416.096Z" fill="#001556"/>
<path d="M1554.53 252.169L1607.16 226H1609.38V504.558H1554.53V252.169Z" fill="#001556"/>
<path d="M2035.45 338.596L2083.99 315.523H2088.11V354.432C2090.89 351.219 2109.4 331.42 2112.74 328.091C2115.52 325.196 2118.64 322.646 2122.03 320.492C2124.7 318.858 2127.6 317.64 2130.63 316.879C2133.85 316.152 2137.15 315.805 2140.45 315.845C2142.86 315.785 2145.28 315.9 2147.67 316.19V373.997C2138.26 362.98 2128.16 357.166 2117.37 357.166C2103.69 357.166 2089.03 372.546 2088.11 375.07V504.558H2035.44L2035.45 338.596Z" fill="#001556"/>
<path d="M1765.25 461.464C1731.13 453.771 1688.56 452.164 1688.56 436.001C1688.56 427.33 1702.87 422.805 1705.83 421.894L1717.18 422.766C1720.05 422.992 1723.32 423.105 1727 423.105C1759.49 423.105 1804.11 408.148 1804.11 365.604C1804.11 350.003 1796.42 334.968 1781.04 320.498C1789.53 309.259 1798.72 303.636 1808.59 303.628C1812.48 303.628 1813.63 304.312 1815.47 305.001V281.267C1815.03 281.435 1814.56 281.55 1814.09 281.611C1796.86 284.946 1783.57 288.704 1765.19 312.944C1760.59 310.882 1747.27 306.402 1728.69 306.402C1677.72 306.402 1654.01 337.301 1654.01 363.558C1654.01 394.897 1681.14 411.06 1688.23 416.591C1675.45 421.621 1648.82 432.788 1648.82 455.688C1648.82 474.859 1663.53 481.718 1670.55 484.887C1655.62 491.217 1628.44 503.652 1628.44 528.003C1628.44 541.58 1635.91 552.326 1650.85 560.241C1665.78 568.156 1685.69 572.118 1710.59 572.125C1768.67 572.125 1817.69 552.243 1816.49 510.338C1816.2 499.472 1815.25 471.435 1765.25 461.464ZM1711.16 335.844C1715.75 328.841 1722.06 325.339 1730.09 325.339C1746.39 325.339 1754.55 338.768 1754.55 365.626C1754.55 391.565 1746.28 404.535 1729.76 404.535C1721.5 404.535 1715.19 401.15 1710.83 394.38C1706.46 387.61 1704.28 377.68 1704.28 364.592C1704.28 352.431 1706.57 342.848 1711.16 335.844ZM1720.11 554.844C1706.08 555.066 1668.86 551.315 1668.86 523.273C1668.89 517.034 1670.47 510.901 1673.46 505.425C1676.55 499.599 1681.04 494.633 1686.52 490.973C1696.93 493.463 1712.1 496.972 1732.01 501.5C1748.98 505.343 1760.86 508.965 1767.65 512.367C1774.44 515.769 1777.83 520.634 1777.83 526.963C1777.81 535.601 1767.41 554.072 1720.14 554.822L1720.11 554.844Z" fill="#001556"/>
<path d="M1392.35 292.189H1391.89C1362.31 291.956 1339.18 268.799 1339.02 239.179V238.856C1339.02 238.826 1339.01 238.796 1339 238.768C1338.99 238.739 1338.97 238.714 1338.95 238.692C1338.93 238.67 1338.91 238.653 1338.88 238.641C1338.85 238.629 1338.82 238.623 1338.79 238.623C1338.73 238.623 1338.67 238.648 1338.62 238.691C1338.58 238.735 1338.56 238.795 1338.56 238.856V239.179C1338.39 268.799 1315.27 291.956 1285.68 292.195H1285.23C1285.17 292.195 1285.11 292.219 1285.07 292.263C1285.02 292.307 1285 292.366 1285 292.428C1285 292.49 1285.02 292.549 1285.07 292.593C1285.11 292.637 1285.17 292.661 1285.23 292.661H1285.68C1315.3 292.895 1338.48 316.129 1338.56 345.788C1338.56 345.922 1338.56 346.055 1338.56 346.194C1338.56 346.225 1338.57 346.255 1338.58 346.283C1338.59 346.311 1338.61 346.336 1338.63 346.357C1338.65 346.379 1338.68 346.395 1338.71 346.406C1338.73 346.417 1338.76 346.423 1338.8 346.422C1338.86 346.422 1338.91 346.398 1338.96 346.355C1339 346.313 1339.02 346.255 1339.02 346.194V345.788C1339.13 316.129 1362.28 292.895 1391.9 292.661H1392.35C1392.41 292.661 1392.47 292.637 1392.52 292.593C1392.56 292.549 1392.58 292.49 1392.58 292.428C1392.58 292.366 1392.56 292.307 1392.52 292.263C1392.47 292.219 1392.41 292.195 1392.35 292.195L1392.35 292.189Z" fill="#E9BA5A"/>
</g>
<path d="M2392.36 515.135C2382.69 515.135 2373.79 512.887 2365.68 508.391C2357.67 503.895 2351.26 497.639 2346.47 489.624C2341.78 481.511 2339.44 472.421 2339.44 462.354C2339.44 452.286 2341.78 443.245 2346.47 435.23C2351.26 427.215 2357.67 420.959 2365.68 416.463C2373.79 411.967 2382.69 409.718 2392.36 409.718C2402.04 409.718 2410.89 411.967 2418.9 416.463C2427.02 420.959 2433.37 427.215 2437.96 435.23C2442.65 443.245 2445 452.286 2445 462.354C2445 472.421 2442.65 481.511 2437.96 489.624C2433.27 497.639 2426.92 503.895 2418.9 508.391C2410.89 512.887 2402.04 515.135 2392.36 515.135ZM2392.36 492.263C2400.58 492.263 2407.12 489.526 2412.01 484.053C2417 478.579 2419.49 471.346 2419.49 462.354C2419.49 453.263 2417 446.03 2412.01 440.654C2407.12 435.181 2400.58 432.444 2392.36 432.444C2384.06 432.444 2377.41 435.132 2372.43 440.508C2367.54 445.884 2365.09 453.166 2365.09 462.354C2365.09 471.444 2367.54 478.726 2372.43 484.199C2377.41 489.575 2384.06 492.263 2392.36 492.263Z" fill="#E9BA5A"/>
<path d="M2300.53 514.109L2279.13 475.256H2273.12V514.109H2248.04V411.184H2290.12C2298.24 411.184 2305.13 412.602 2310.8 415.436C2316.56 418.271 2320.86 422.181 2323.7 427.166C2326.53 432.053 2327.95 437.526 2327.95 443.587C2327.95 450.429 2326 456.538 2322.09 461.914C2318.27 467.289 2312.6 471.101 2305.08 473.35L2328.83 514.109H2300.53ZM2273.12 457.515H2288.66C2293.25 457.515 2296.67 456.391 2298.92 454.143C2301.27 451.895 2302.44 448.718 2302.44 444.613C2302.44 440.703 2301.27 437.624 2298.92 435.376C2296.67 433.128 2293.25 432.004 2288.66 432.004H2273.12V457.515Z" fill="#E9BA5A"/>
<path d="M2234.99 444.32C2234.99 450.282 2233.62 455.756 2230.89 460.741C2228.15 465.628 2223.95 469.586 2218.28 472.616C2212.61 475.647 2205.57 477.162 2197.17 477.162H2181.62V514.109H2156.55V411.184H2197.17C2205.38 411.184 2212.32 412.602 2217.99 415.436C2223.65 418.271 2227.91 422.181 2230.74 427.166C2233.58 432.151 2234.99 437.869 2234.99 444.32ZM2195.26 457.222C2200.05 457.222 2203.62 456.098 2205.96 453.85C2208.31 451.602 2209.48 448.425 2209.48 444.32C2209.48 440.214 2208.31 437.038 2205.96 434.79C2203.62 432.541 2200.05 431.417 2195.26 431.417H2181.62V457.222H2195.26Z" fill="#E9BA5A"/>
<g clip-path="url(#clip1_324_43)">
<path d="M207.312 327.318C221.995 321.443 238.322 314.823 266.926 315.356C298.653 315.951 320.96 322.143 333.842 335.711C338.5 340.189 341.84 345.858 343.5 352.103C345.353 358.658 346.279 367.8 346.279 379.528V462.347C346.279 487.505 351.57 497.882 354.565 504.78H300.731L294.863 489.255C288.883 494.53 269.327 508.921 242.779 508.921C234.271 508.921 214.714 506.486 200.182 490.812C194.869 485.087 183.11 471.302 183.11 446.134C183.11 420.849 197.592 398.626 224.501 389.21C233.022 386.246 242.449 384.751 252.782 384.725C270.255 384.725 281.364 392.145 291.762 399.21V363.998C291.762 352.273 289.233 344.167 284.176 339.68C279.119 335.192 270.725 332.95 258.995 332.954C233.232 332.954 219.344 350.924 206.201 363.314L201.371 363.998C201.371 363.998 202.483 343.793 204.056 332.871C204.533 329.636 204.995 328.274 207.312 327.318ZM291.072 416.096C287.627 412.739 283.554 410.095 279.085 408.314C274.524 406.396 269.629 405.399 264.681 405.38C256.585 405.38 250.048 408.887 245.069 415.902C240.089 422.916 237.603 432.634 237.611 445.055C237.611 457.243 240.204 466.844 245.391 473.859C250.578 480.873 257.697 484.381 266.748 484.381C278.563 484.381 286.199 475.187 291.05 469.206L291.072 416.096Z" fill="#001556"/>
<path d="M685.188 327.318C699.876 321.443 716.198 314.823 744.808 315.356C776.529 315.951 798.842 322.143 811.718 335.711C816.38 340.187 819.723 345.857 821.382 352.103C823.235 358.658 824.161 367.8 824.161 379.528V462.347C824.161 487.505 829.451 497.882 832.441 504.78H778.63L772.761 489.255C766.787 494.553 747.231 508.921 720.683 508.921C712.169 508.921 692.619 506.486 678.08 490.812C672.768 485.087 661.008 471.302 661.008 446.134C661.008 420.849 675.491 398.626 702.399 389.21C710.921 386.246 720.35 384.751 730.686 384.725C748.153 384.725 759.262 392.145 769.666 399.21V363.998C769.666 352.273 767.135 344.167 762.074 339.68C757.013 335.192 748.62 332.95 736.894 332.954C711.13 332.954 697.248 350.924 684.099 363.314L679.27 363.998C679.27 363.998 680.381 343.793 681.954 332.871C682.415 329.636 682.876 328.274 685.188 327.318ZM768.954 416.096C765.508 412.74 761.435 410.096 756.967 408.314C752.405 406.398 747.51 405.4 742.562 405.38C734.463 405.38 727.926 408.887 722.951 415.902C717.975 422.916 715.487 432.634 715.487 445.055C715.487 457.243 718.08 466.844 723.267 473.859C728.454 480.873 735.571 484.381 744.619 484.381C756.439 484.381 764.069 475.187 768.926 469.206L768.954 416.096Z" fill="#001556"/>
<path d="M387.531 252.169L440.159 226H442.382V504.558H387.531V252.169Z" fill="#001556"/>
<path d="M868.447 338.596L916.985 315.523H921.114V354.432C923.893 351.219 942.405 331.42 945.739 328.091C948.52 325.196 951.638 322.646 955.025 320.492C957.695 318.858 960.598 317.64 963.634 316.879C966.853 316.152 970.147 315.805 973.448 315.845C975.861 315.785 978.276 315.9 980.673 316.19V373.997C971.258 362.98 961.161 357.166 950.374 357.166C936.686 357.166 922.031 372.546 921.109 375.07V504.558H868.442L868.447 338.596Z" fill="#001556"/>
<path d="M598.255 461.464C564.127 453.771 521.563 452.164 521.563 436.001C521.563 427.33 535.873 422.805 538.83 421.894L550.184 422.766C553.051 422.992 556.323 423.105 559.998 423.105C592.486 423.105 637.112 408.148 637.112 365.604C637.112 350.003 629.422 334.968 614.043 320.498C622.535 309.259 631.715 303.636 641.585 303.628C645.475 303.628 646.631 304.312 648.471 305.001V281.267C648.026 281.435 647.564 281.55 647.093 281.611C629.865 284.946 616.572 288.704 598.188 312.944C593.592 310.882 580.265 306.402 561.693 306.402C510.721 306.402 487.008 337.301 487.008 363.558C487.008 394.897 514.139 411.06 521.23 416.591C508.448 421.621 481.823 432.788 481.823 455.688C481.823 474.859 496.533 481.718 503.546 484.887C488.619 491.217 461.444 503.652 461.444 528.003C461.444 541.58 468.911 552.326 483.846 560.241C498.78 568.156 518.694 572.118 543.587 572.125C601.672 572.125 650.688 552.243 649.488 510.338C649.199 499.472 648.248 471.435 598.255 461.464ZM544.159 335.844C548.75 328.841 555.061 325.339 563.093 325.339C579.395 325.339 587.546 338.768 587.546 365.626C587.546 391.565 579.284 404.535 562.76 404.535C554.502 404.535 548.19 401.15 543.826 394.38C539.462 387.61 537.281 377.68 537.285 364.592C537.278 352.431 539.569 342.848 544.159 335.844ZM553.112 554.844C539.08 555.066 501.857 551.315 501.857 523.273C501.888 517.034 503.469 510.901 506.458 505.425C509.549 499.599 514.039 494.633 519.524 490.973C529.934 493.463 545.097 496.972 565.011 501.5C581.983 505.343 593.862 508.965 600.65 512.367C607.437 515.769 610.831 520.634 610.831 526.963C610.814 535.601 600.411 554.072 553.14 554.822L553.112 554.844Z" fill="#001556"/>
<path d="M225.346 292.189H224.89C195.314 291.956 172.184 268.799 172.017 239.179V238.856C172.018 238.826 172.013 238.796 172.002 238.768C171.991 238.739 171.974 238.714 171.953 238.692C171.931 238.67 171.906 238.653 171.878 238.641C171.85 238.629 171.82 238.623 171.79 238.623C171.728 238.623 171.668 238.648 171.625 238.691C171.581 238.735 171.556 238.795 171.556 238.856V239.179C171.389 268.799 148.265 291.956 118.684 292.195H118.233C118.172 292.195 118.112 292.219 118.068 292.263C118.025 292.307 118 292.366 118 292.428C118 292.49 118.025 292.549 118.068 292.593C118.112 292.637 118.172 292.661 118.233 292.661H118.684C148.304 292.895 171.478 316.129 171.562 345.788C171.562 345.922 171.562 346.055 171.562 346.194C171.562 346.225 171.568 346.255 171.58 346.283C171.591 346.311 171.609 346.336 171.63 346.357C171.652 346.379 171.678 346.395 171.706 346.406C171.735 346.417 171.765 346.423 171.795 346.422C171.856 346.422 171.913 346.398 171.956 346.355C171.999 346.313 172.023 346.255 172.023 346.194V345.788C172.134 316.129 195.28 292.895 224.896 292.661H225.351C225.413 292.661 225.473 292.637 225.516 292.593C225.56 292.549 225.585 292.49 225.585 292.428C225.585 292.366 225.56 292.307 225.516 292.263C225.473 292.219 225.413 292.195 225.351 292.195L225.346 292.189Z" fill="#969EB9"/>
</g>
<line x1="1153" y1="287" x2="1153" y2="553" stroke="#001556" stroke-width="10" stroke-linecap="round"/>
<defs>
<clipPath id="clip0_324_43">
<rect width="862.678" height="346.136" fill="white" transform="translate(1285 226)"/>
</clipPath>
<clipPath id="clip1_324_43">
<rect width="862.678" height="346.136" fill="white" transform="translate(118 226)"/>
</clipPath>
</defs>
</svg>
