<svg width="32" height="33" viewBox="0 0 32 33" fill="none" xmlns="http://www.w3.org/2000/svg">
<path d="M22.3634 0C22.3634 0 11.6465 18.0978 11.2349 19.3301C10.8233 20.5624 10.4118 20.5624 12.8811 20.5624C15.3505 20.5624 16.6428 20.5624 16.6428 20.5624C16.6428 20.5624 13.2927 22.6161 12.4696 23.4376C11.6465 24.2591 11.6465 24.2591 12.4696 25.0807C13.2927 25.9022 12.8811 26.3129 12.058 26.3129C11.2349 26.3129 10.9221 26.584 10.9221 28.7117C10.9221 30.8394 10.9221 33 10.9221 33H31.4999V0H22.3634Z" fill="#001556"/>
<path d="M23.8895 6.79688C26.9396 6.79688 28.5883 8.66295 28.5883 8.66295C28.5883 8.66295 27.327 10.529 24.2769 10.529C21.2268 10.529 19.5781 8.66295 19.5781 8.66295C19.5781 8.66295 20.8394 6.79688 23.8895 6.79688Z" fill="white"/>
<path d="M25.0871 8.68206C25.0871 8.16557 24.6683 7.73926 24.1428 7.73926C23.6747 7.73926 23.1985 8.15737 23.1985 8.68206C23.1985 9.20675 23.6173 9.63306 24.1428 9.62486C24.849 9.60846 25.0871 9.19855 25.0871 8.68206Z" fill="#101C55"/>
<path d="M1.87957 18.7774C2.6358 18.3024 3.59146 18.3767 4.25788 18.9095C4.06744 18.0777 4.40787 17.1893 5.17028 16.7104C6.13256 16.1059 7.79152 16.2055 8.35361 17.8964C8.77797 19.1953 8.14743 20.4678 7.7094 21.8039C7.37635 22.8319 7.46972 24.0071 7.46972 24.0071C7.46972 24.0071 6.4491 23.4143 5.37609 23.2724C3.98023 23.0883 2.55639 23.1063 1.57156 22.1595C0.282856 20.9221 0.911112 19.3858 1.87957 18.7774Z" fill="#ECBD5A"/>
</svg>
