<svg width="107" height="86" viewBox="0 0 107 86" fill="none" xmlns="http://www.w3.org/2000/svg">
<path d="M81.1698 76.6573L86.0722 71.9153C86.5133 71.4924 86.5211 70.7954 86.0919 70.3607L47.1638 30.5766C46.7386 30.138 46.0377 30.1302 45.6006 30.557L40.6981 35.299C40.2571 35.7219 40.2492 36.4189 40.6785 36.8535L79.6065 76.6377C80.0318 77.0762 80.7327 77.0841 81.1698 76.6573Z" fill="#A4D3BC"/>
<path d="M58.3826 74.5461L74.0664 59.3722L69.4869 54.6928L55.3743 68.3512L58.3826 74.5461Z" fill="#A4D3BC"/>
<path d="M64.8691 81.1758L80.5527 66.0021L75.9732 61.3227L61.8568 74.9771L64.8691 81.1758Z" fill="#A4D3BC"/>
<path d="M23.9399 11.9924C30.7875 5.37079 41.7303 5.52351 48.389 12.3252C55.0476 19.127 54.898 30.0129 48.0543 36.6306C41.2145 43.2522 30.2677 43.1034 23.613 36.2977C16.9505 29.4921 17.1001 18.614 23.9399 11.9924Z" fill="#A4D3BC"/>
<path d="M32.2451 20.2415C25.4805 26.9686 26.0042 34.7254 26.0042 34.7254C26.0042 34.7254 32.9618 36.0842 39.7225 29.361C46.4832 22.6379 45.9674 14.8732 45.9674 14.8732C45.9674 14.8732 39.0098 13.5145 32.2451 20.2415Z" fill="white"/>
<path d="M33.8106 26.9977C32.6529 25.8465 32.6529 23.9825 33.8106 22.8313C34.8581 21.7897 36.8427 21.68 38.0004 22.8313C39.1581 23.9825 39.1818 25.87 38.0004 26.9977C36.4096 28.5171 34.9683 28.149 33.8106 26.9977Z" fill="#101C55"/>
</svg>
