<svg xmlns="http://www.w3.org/2000/svg" viewBox="0 0 970.45 970.45"><defs><style>.cls-1{fill:#001556;}.cls-2{fill:#fff;}.cls-3{fill:#969eb9;}</style></defs><g id="Calque_2" data-name="Calque 2"><g id="Calque_2-2" data-name="Calque 2"><circle class="cls-1" cx="485.23" cy="485.23" r="485.23"/><path class="cls-2" d="M366.11,323.12C394.45,311.78,426,299,481.18,300c61.23,1.15,104.3,13.11,129.16,39.29A68.22,68.22,0,0,1,629,371q5.31,19,5.32,52.92v159.8c0,48.55,10.2,68.57,16,81.89H546.42l-11.32-30c-11.54,10.22-49.29,37.95-100.53,37.95-16.43,0-54.17-4.71-82.23-34.95-10.25-11.05-32.95-37.65-32.95-86.23,0-48.79,28-91.67,79.89-109.85q24.64-8.61,54.6-8.65c33.72,0,55.16,14.32,75.24,27.95V393.91q0-33.95-14.65-46.93t-48.61-13c-49.73,0-76.53,34.68-101.87,58.59l-9.32,1.32s2.17-39,5.18-60.07C360.75,327.59,361.64,324.91,366.11,323.12ZM527.78,494.45a70.54,70.54,0,0,0-23.13-15,72.26,72.26,0,0,0-27.81-5.67q-23.43,0-37.85,20.31t-14.4,56.26q0,35.28,15.06,55.59t41.22,20.31c22.81,0,37.53-17.75,46.91-29.29Z"/><path class="cls-3" d="M400.92,255.33H400C343,254.88,298.31,210.15,298,153c0-.21,0-.42,0-.62a.45.45,0,0,0-.45-.45h0a.45.45,0,0,0-.45.45V153c-.32,57.13-45,101.86-102,102.31h-.88a.44.44,0,0,0-.44.44.45.45,0,0,0,.44.46H195c57.17.45,101.85,45.29,102.06,102.53,0,.26,0,.52,0,.79a.45.45,0,0,0,.45.44h0a.45.45,0,0,0,.45-.44c0-.27,0-.53,0-.79.21-57.24,44.89-102.08,102.06-102.53h.88a.45.45,0,0,0,.44-.46A.44.44,0,0,0,400.92,255.33Z"/></g></g></svg>