<svg width="206" height="30" viewBox="0 0 206 30" fill="none" xmlns="http://www.w3.org/2000/svg">
<g clip-path="url(#clip0_202_2)">
<path d="M7.62023 8.78345C8.87373 8.27269 10.2697 7.69929 12.715 7.74747C15.4261 7.80047 17.3301 8.33533 18.4317 9.51104C18.8258 9.89171 19.1011 10.364 19.2578 10.9325C19.4145 11.5011 19.4952 12.2914 19.4952 13.3081V20.4877C19.4952 22.6704 19.9463 23.5667 20.2027 24.1642H15.6065L15.1032 22.8198C14.5905 23.2776 12.9239 24.5256 10.6543 24.5256C9.92781 24.5256 8.25648 24.3135 7.01248 22.9547C6.55666 22.4584 5.55481 21.2634 5.55481 19.0806C5.55481 16.8882 6.79406 14.9608 9.09215 14.1465C9.81861 13.8863 10.6258 13.7562 11.5089 13.7562C12.9998 13.7562 13.9495 14.4019 14.8374 15.0138V11.9637C14.8374 10.947 14.6189 10.2435 14.1869 9.85316C13.7548 9.46286 13.0378 9.27012 12.036 9.27012C9.83285 9.27012 8.65057 10.8265 7.52527 11.9011L7.11219 11.9589C7.11219 11.9589 7.20715 10.205 7.3401 9.26048C7.38283 8.98101 7.42081 8.86055 7.62023 8.78345ZM14.7756 16.4787C14.5002 16.1992 14.1584 15.9775 13.75 15.8041C13.3464 15.6354 12.9334 15.5487 12.5203 15.5487C11.8271 15.5487 11.2715 15.8522 10.8442 16.4594C10.4169 17.0665 10.208 17.9097 10.208 18.9891C10.208 20.0443 10.4311 20.878 10.8727 21.4851C11.319 22.0922 11.9268 22.3958 12.696 22.3958C13.7073 22.3958 14.3578 21.6007 14.7709 21.0803V16.4787H14.7756Z" fill="#001556"/>
<path d="M48.4486 8.78345C49.7021 8.27269 51.0981 7.69929 53.5433 7.74747C56.2545 7.80047 58.1585 8.33533 59.2601 9.51104C59.6541 9.89171 59.9295 10.364 60.0862 10.9325C60.2429 11.5011 60.3236 12.2914 60.3236 13.3081V20.4877C60.3236 22.6704 60.7747 23.5667 61.0311 24.1642H56.4349L55.9316 22.8198C55.4188 23.2776 53.7522 24.5256 51.4826 24.5256C50.7562 24.5256 49.0849 24.3135 47.8408 22.9547C47.385 22.4584 46.3832 21.2634 46.3832 19.0806C46.3832 16.8882 47.6224 14.9608 49.9205 14.1465C50.647 13.8863 51.4542 13.7562 52.3373 13.7562C53.8282 13.7562 54.7778 14.4019 55.6657 15.0138V11.9637C55.6657 10.947 55.4473 10.2435 55.0152 9.85316C54.5832 9.46286 53.8662 9.27012 52.8643 9.27012C50.6612 9.27012 49.4789 10.8265 48.3536 11.9011L47.9406 11.9589C47.9406 11.9589 48.0355 10.205 48.1685 9.26048C48.2112 8.98101 48.2492 8.86055 48.4486 8.78345ZM55.604 16.4787C55.3286 16.1992 54.9868 15.9775 54.5784 15.8041C54.1748 15.6354 53.7617 15.5487 53.3487 15.5487C52.6554 15.5487 52.0999 15.8522 51.6726 16.4594C51.2452 17.0665 51.0363 17.9097 51.0363 18.9891C51.0363 20.0443 51.2595 20.878 51.7011 21.4851C52.1474 22.0922 52.7551 22.3958 53.5243 22.3958C54.5357 22.3958 55.1862 21.6007 55.5993 21.0803V16.4787H55.604Z" fill="#001556"/>
<path d="M23.0197 2.26952L27.5161 0H27.706V24.1504H23.0197V2.26952Z" fill="#001556"/>
<path d="M64.1101 9.76237L68.2552 7.7627H68.6065V11.1357C68.844 10.8562 70.4251 9.14079 70.71 8.85168C70.9948 8.56257 71.2607 8.34573 71.5029 8.19635C71.7498 8.04698 71.9919 7.94098 72.2388 7.88316C72.4857 7.82534 72.7659 7.7916 73.0793 7.7916C73.3879 7.7916 73.5778 7.80124 73.6965 7.82052V12.8318C72.8941 11.8777 72.0299 11.3718 71.1088 11.3718C69.9408 11.3718 68.6873 12.7065 68.6065 12.9233V24.1456H64.1053V9.76237H64.1101Z" fill="#001556"/>
<path d="M41.024 20.4112C38.1087 19.7462 34.4716 19.6065 34.4716 18.2043C34.4716 17.4526 35.6966 17.0623 35.9483 16.9804C36.3756 17.0141 36.7032 17.0382 36.9216 17.0575C37.1685 17.0767 37.4439 17.0864 37.762 17.0864C40.5397 17.0864 44.3524 15.7902 44.3524 12.104C44.3524 10.75 43.6972 9.44905 42.382 8.19142C43.1084 7.21808 43.8919 6.72659 44.737 6.72659C45.0694 6.72659 45.1691 6.78441 45.3258 6.84705V4.78955C45.2973 4.80401 45.2641 4.80882 45.2071 4.81846C43.7352 5.10757 42.6004 5.43523 41.0287 7.5361C40.6346 7.35782 39.4951 6.96752 37.9092 6.96752C33.5505 6.96752 31.5278 9.64661 31.5278 11.9209C31.5278 14.6386 33.8448 16.0408 34.4526 16.5178C33.3605 16.9563 31.0862 17.92 31.0862 19.9052C31.0862 21.5676 32.3444 22.1603 32.9427 22.4349C31.6655 22.9842 29.3484 24.0636 29.3484 26.1741C29.3484 27.3498 29.9846 28.2846 31.2619 28.9688C32.5391 29.6531 34.2389 30 36.3661 30C41.3279 30 45.5157 28.275 45.416 24.6418C45.3733 23.707 45.2925 21.2785 41.024 20.4112ZM36.3993 9.52133C36.7934 8.91419 37.33 8.61063 38.0184 8.61063C39.4096 8.61063 40.1076 9.77671 40.1076 12.104C40.1076 14.3543 39.4001 15.477 37.9899 15.477C37.2825 15.477 36.7459 15.1831 36.3708 14.5952C36.0005 14.0074 35.8106 13.1497 35.8106 12.0125C35.8153 10.9621 36.01 10.1285 36.3993 9.52133ZM37.1638 28.5062C35.9673 28.5255 32.786 28.1979 32.786 25.7693C32.786 25.2393 32.9142 24.7237 33.1754 24.2226C33.4365 23.7215 33.8069 23.3071 34.2912 22.9698C35.1791 23.1866 36.4753 23.4902 38.1751 23.8805C39.6233 24.213 40.6394 24.5262 41.2187 24.8201C41.7979 25.114 42.0876 25.5332 42.0876 26.0874C42.0971 26.839 41.2092 28.4388 37.1638 28.5062Z" fill="#001556"/>
<path d="M9.16366 5.7388C9.14941 5.7388 9.13992 5.7388 9.12567 5.7388C6.59968 5.71952 4.62447 3.7102 4.61023 1.14193C4.61023 1.1323 4.61023 1.12266 4.61023 1.11302C4.61023 1.10338 4.60073 1.09375 4.59123 1.09375C4.58174 1.09375 4.57224 1.10338 4.57224 1.11302C4.57224 1.12266 4.57224 1.1323 4.57224 1.14193C4.558 3.7102 2.58279 5.71952 0.0567941 5.7388C0.0425498 5.7388 0.0330536 5.7388 0.0188093 5.7388C0.0093131 5.7388 -0.000183105 5.74843 -0.000183105 5.75807C-0.000183105 5.76771 0.0093131 5.77735 0.0188093 5.77735C0.0330536 5.77735 0.0425498 5.77735 0.0567941 5.77735C2.58753 5.79662 4.56274 7.81076 4.57224 10.3839C4.57224 10.3935 4.57224 10.408 4.57224 10.4176C4.57224 10.4272 4.58174 10.4369 4.59123 10.4369C4.60073 10.4369 4.61023 10.4272 4.61023 10.4176C4.61023 10.408 4.61023 10.3935 4.61023 10.3839C4.61972 7.81076 6.59493 5.79662 9.12567 5.77735C9.13992 5.77735 9.14941 5.77735 9.16366 5.77735C9.17315 5.77735 9.18265 5.76771 9.18265 5.75807C9.18265 5.74843 9.17315 5.7388 9.16366 5.7388Z" fill="#969EB9"/>
<path d="M119.228 9.1864C120.417 8.7104 121.741 8.17601 124.061 8.22091C126.632 8.27031 128.438 8.76878 129.483 9.86449C129.857 10.2192 130.118 10.6594 130.267 11.1892C130.415 11.7191 130.492 12.4556 130.492 13.4031V20.0942C130.492 22.1286 130.92 22.9638 131.163 23.5206H126.803L126.326 22.2677C125.84 22.6943 124.259 23.8574 122.106 23.8574C121.417 23.8574 119.832 23.6599 118.652 22.3935C118.22 21.9309 117.269 20.8172 117.269 18.783C117.269 16.7397 118.445 14.9434 120.624 14.1845C121.313 13.942 122.079 13.8207 122.917 13.8207C124.331 13.8207 125.232 14.4225 126.074 14.9928V12.1503C126.074 11.2027 125.867 10.547 125.457 10.1833C125.047 9.81958 124.367 9.63993 123.417 9.63993C121.327 9.63993 120.206 11.0904 119.138 12.0918L118.746 12.1458C118.746 12.1458 118.837 10.5111 118.963 9.63102C119.003 9.37055 119.039 9.25823 119.228 9.1864ZM126.015 16.358C125.754 16.0975 125.43 15.891 125.042 15.7293C124.66 15.5721 124.268 15.4913 123.876 15.4913C123.219 15.4913 122.692 15.7742 122.286 16.34C121.881 16.9059 121.683 17.6918 121.683 18.6976C121.683 19.6811 121.894 20.458 122.313 21.0239C122.737 21.5896 123.313 21.8726 124.043 21.8726C125.002 21.8726 125.619 21.1316 126.011 20.6466V16.358H126.015Z" fill="#001556"/>
<path d="M157.954 9.1864C159.143 8.7104 160.467 8.17601 162.786 8.22091C165.358 8.27031 167.164 8.76878 168.209 9.86449C168.582 10.2192 168.844 10.6594 168.992 11.1892C169.141 11.7191 169.217 12.4556 169.217 13.4031V20.0942C169.217 22.1286 169.645 22.9638 169.888 23.5206H165.529L165.051 22.2677C164.565 22.6943 162.984 23.8574 160.832 23.8574C160.143 23.8574 158.557 23.6599 157.377 22.3935C156.945 21.9309 155.995 20.8172 155.995 18.783C155.995 16.7397 157.17 14.9434 159.35 14.1845C160.039 13.942 160.805 13.8207 161.642 13.8207C163.056 13.8207 163.957 14.4225 164.799 14.9928V12.1503C164.799 11.2027 164.592 10.547 164.182 10.1833C163.773 9.81958 163.092 9.63993 162.142 9.63993C160.053 9.63993 158.931 11.0904 157.864 12.0918L157.472 12.1458C157.472 12.1458 157.562 10.5111 157.688 9.63102C157.729 9.37055 157.765 9.25823 157.954 9.1864ZM164.741 16.358C164.48 16.0975 164.155 15.891 163.768 15.7293C163.385 15.5721 162.993 15.4913 162.602 15.4913C161.944 15.4913 161.417 15.7742 161.012 16.34C160.606 16.9059 160.408 17.6918 160.408 18.6976C160.408 19.6811 160.62 20.458 161.039 21.0239C161.462 21.5896 162.039 21.8726 162.768 21.8726C163.727 21.8726 164.344 21.1316 164.736 20.6466V16.358H164.741Z" fill="#001556"/>
<path d="M133.834 3.11511L138.099 1H138.279V23.5073H133.834V3.11511Z" fill="#001556"/>
<path d="M172.808 10.0985L176.74 8.23486H177.073V11.3784C177.299 11.1179 178.798 9.51922 179.068 9.24976C179.339 8.98031 179.591 8.77824 179.821 8.63903C180.055 8.49981 180.284 8.40102 180.519 8.34713C180.753 8.29324 181.018 8.26181 181.316 8.26181C181.608 8.26181 181.789 8.27079 181.901 8.28875V12.9591C181.14 12.0699 180.32 11.5984 179.447 11.5984C178.339 11.5984 177.15 12.8423 177.073 13.0444V23.5032H172.804V10.0985H172.808Z" fill="#001556"/>
<path d="M150.911 20.0222C148.146 19.4025 144.696 19.2723 144.696 17.9655C144.696 17.2649 145.858 16.9011 146.097 16.8248C146.502 16.8563 146.813 16.8787 147.02 16.8967C147.254 16.9146 147.516 16.9236 147.817 16.9236C150.452 16.9236 154.068 15.7156 154.068 12.2803C154.068 11.0184 153.447 9.80589 152.199 8.63381C152.888 7.72669 153.631 7.26864 154.433 7.26864C154.748 7.26864 154.843 7.32253 154.992 7.38091V5.46338C154.965 5.47685 154.933 5.48135 154.879 5.49033C153.483 5.75977 152.407 6.06513 150.916 8.02307C150.542 7.85692 149.461 7.49318 147.957 7.49318C143.823 7.49318 141.904 9.99004 141.904 12.1096C141.904 14.6423 144.102 15.9492 144.678 16.3937C143.643 16.8024 141.485 17.7005 141.485 19.5507C141.485 21.1 142.679 21.6523 143.246 21.9083C142.035 22.4202 139.837 23.4261 139.837 25.393C139.837 26.4888 140.441 27.36 141.652 27.9976C142.863 28.6353 144.476 28.9587 146.493 28.9587C151.2 28.9587 155.172 27.351 155.077 23.965C155.037 23.0938 154.96 20.8305 150.911 20.0222ZM146.525 9.87322C146.899 9.30745 147.408 9.02449 148.061 9.02449C149.38 9.02449 150.042 10.1113 150.042 12.2803C150.042 14.3774 149.371 15.4237 148.034 15.4237C147.362 15.4237 146.854 15.1499 146.498 14.6019C146.147 14.0541 145.966 13.2547 145.966 12.195C145.971 11.216 146.156 10.4391 146.525 9.87322ZM147.25 27.5665C146.115 27.5845 143.098 27.2791 143.098 25.0158C143.098 24.5219 143.219 24.0414 143.467 23.5743C143.715 23.1073 144.066 22.7211 144.525 22.4067C145.367 22.6089 146.597 22.8918 148.209 23.2555C149.583 23.5653 150.547 23.8572 151.096 24.1312C151.645 24.4052 151.92 24.7958 151.92 25.3122C151.929 26.0128 151.087 27.5037 147.25 27.5665Z" fill="#001556"/>
<path d="M120.692 6.34806C120.678 6.34806 120.669 6.34806 120.656 6.34806C118.26 6.33011 116.386 4.45748 116.373 2.06395C116.373 2.05496 116.373 2.04598 116.373 2.037C116.373 2.02802 116.364 2.01904 116.355 2.01904C116.346 2.01904 116.337 2.02802 116.337 2.037C116.337 2.04598 116.337 2.05496 116.337 2.06395C116.323 4.45748 114.45 6.33011 112.054 6.34806C112.041 6.34806 112.032 6.34806 112.018 6.34806C112.009 6.34806 112 6.35705 112 6.36603C112 6.37501 112.009 6.38399 112.018 6.38399C112.032 6.38399 112.041 6.38399 112.054 6.38399C114.454 6.40196 116.328 8.27906 116.337 10.6771C116.337 10.6861 116.337 10.6996 116.337 10.7086C116.337 10.7176 116.346 10.7266 116.355 10.7266C116.364 10.7266 116.373 10.7176 116.373 10.7086C116.373 10.6996 116.373 10.6861 116.373 10.6771C116.382 8.27906 118.255 6.40196 120.656 6.38399C120.669 6.38399 120.678 6.38399 120.692 6.38399C120.701 6.38399 120.71 6.37501 120.71 6.36603C120.71 6.35705 120.701 6.34806 120.692 6.34806Z" fill="#EDBE5A"/>
<path d="M186.436 16.072C187.335 16.072 188.036 16.2895 188.539 16.7243C189.049 17.1518 189.304 17.7592 189.304 18.5465C189.304 19.3339 189.049 19.945 188.539 20.3799C188.036 20.8073 187.335 21.021 186.436 21.021H184.962V23.4956H183.027V16.072H186.436ZM186.132 19.5701C186.949 19.5701 187.358 19.2288 187.358 18.5465C187.358 17.8642 186.949 17.5229 186.132 17.5229H184.962V19.5701H186.132ZM194.083 16.072C194.969 16.072 195.655 16.2782 196.142 16.6906C196.637 17.103 196.884 17.6579 196.884 18.3553C196.884 18.9102 196.753 19.3676 196.491 19.7275C196.236 20.08 195.869 20.3387 195.388 20.5036L197.323 23.4956H195.186L193.6 20.7848H192.441V23.4956H190.541V16.072H194.083ZM193.814 19.4126C194.189 19.4126 194.47 19.3376 194.657 19.1876C194.845 19.0376 194.938 18.7977 194.938 18.4678C194.938 17.8454 194.564 17.5342 193.814 17.5342H192.441V19.4126H193.814ZM201.548 15.9595C202.298 15.9595 202.943 16.1132 203.483 16.4207C204.03 16.7206 204.45 17.1555 204.742 17.7254C205.035 18.2953 205.181 18.9814 205.181 19.7838C205.181 20.5861 205.035 21.2723 204.742 21.8421C204.45 22.412 204.03 22.8507 203.483 23.1581C202.943 23.458 202.298 23.608 201.548 23.608C200.79 23.608 200.138 23.458 199.591 23.1581C199.051 22.8507 198.635 22.412 198.342 21.8421C198.05 21.2723 197.904 20.5861 197.904 19.7838C197.904 18.9814 198.05 18.2953 198.342 17.7254C198.635 17.1555 199.051 16.7206 199.591 16.4207C200.138 16.1132 200.79 15.9595 201.548 15.9595ZM201.548 17.478C201.008 17.478 200.596 17.6729 200.311 18.0628C200.026 18.4453 199.883 19.0189 199.883 19.7838C199.883 20.5486 200.026 21.126 200.311 21.5159C200.596 21.8984 201.008 22.0896 201.548 22.0896C202.081 22.0896 202.489 21.8984 202.774 21.5159C203.059 21.126 203.201 20.5486 203.201 19.7838C203.201 19.0189 203.059 18.4453 202.774 18.0628C202.489 17.6729 202.081 17.478 201.548 17.478Z" fill="#EDBE5A"/>
<path d="M93.5 1V29" stroke="#001556"/>
</g>
<defs>
<clipPath id="clip0_202_2">
<rect width="206" height="30" fill="white"/>
</clipPath>
</defs>
</svg>
