<svg width="41" height="33" viewBox="0 0 41 33" fill="none" xmlns="http://www.w3.org/2000/svg">
<path d="M39.8253 20.4512L0.591666 20.5929C0.591666 20.5929 0.310474 21.7202 0.733075 22.7107C1.7847 25.1689 5.23215 24.6851 5.79616 24.4033C6.21713 25.107 7.17449 26.5211 8.46667 27.0798C10.435 27.9253 11.5549 27.6435 14.0921 26.798C14.3733 27.3617 15.7793 32.9999 22.5295 32.9999C27.3098 32.9999 31.3879 30.3217 31.3879 27.7869C32.0917 28.2104 34.6224 27.3633 34.6224 25.3905C34.6224 25.384 39.8253 26.2278 39.8253 20.4512Z" fill="#A4D3BC"/>
<path d="M26.7166 9.95056L40.469 9.90006C40.5234 9.65325 40.5059 9.39595 40.4186 9.15883C40.0512 8.29869 38.8419 8.46811 38.6453 8.56748C38.4974 8.31986 38.1577 7.823 37.7091 7.62751C37.0183 7.33102 36.6249 7.43039 35.7375 7.72688C35.6383 7.52977 35.1458 5.55371 32.7793 5.55371C31.1035 5.55371 29.6748 6.49205 29.6748 7.38152C29.4277 7.23328 28.537 7.52977 28.537 8.22049C28.5402 8.22049 26.7166 7.924 26.7166 9.95056Z" fill="#A4D3BC"/>
<path d="M11.0415 23.8382C11.1764 23.1605 11.1764 17.5793 11.0415 16.7811C11.0415 16.7811 27.5278 16.5237 31.9879 15.1699C31.9879 15.1699 32.8006 22.8901 26.4469 23.8382H11.0415Z" fill="#001556"/>
<path d="M9.33312 26.6824H8.87964L12.1223 21.1289H12.5774L9.33312 26.6824Z" fill="#A4D3BC"/>
<path d="M10.6853 26.6824H10.2302L13.4729 21.1289H13.928L10.6853 26.6824Z" fill="#A4D3BC"/>
<path d="M12.0362 26.6824H11.5811L14.8253 21.1289H15.2788L12.0362 26.6824Z" fill="#A4D3BC"/>
<path d="M13.3867 26.6824H12.9332L16.1759 21.1289H16.631L13.3867 26.6824Z" fill="#A4D3BC"/>
<path d="M14.739 26.6824H14.2839L17.5282 21.1289H17.9817L14.739 26.6824Z" fill="#A4D3BC"/>
<path d="M16.0897 26.6824H15.6362L18.8789 21.1289H19.3324L16.0897 26.6824Z" fill="#A4D3BC"/>
<path d="M17.4422 26.6824H16.9871L20.2313 21.1289H20.6848L17.4422 26.6824Z" fill="#A4D3BC"/>
<path d="M18.7928 26.6824H18.3394L21.582 21.1289H22.0355L18.7928 26.6824Z" fill="#A4D3BC"/>
<path d="M20.1433 26.6824H19.6898L22.9325 21.1289H23.3876L20.1433 26.6824Z" fill="#A4D3BC"/>
<path d="M21.4958 26.6824H21.0406L24.2849 21.1289H24.7384L21.4958 26.6824Z" fill="#A4D3BC"/>
<path d="M22.8463 26.6824H22.3928L25.6355 21.1289H26.0906L22.8463 26.6824Z" fill="#A4D3BC"/>
<path d="M24.1988 26.6824H23.7437L26.9879 21.1289H27.4414L24.1988 26.6824Z" fill="#A4D3BC"/>
<path d="M25.5494 26.6824H25.0959L28.3386 21.1289H28.7921L25.5494 26.6824Z" fill="#A4D3BC"/>
<path d="M11.0412 21.1289H8.60803V25.4622H11.0412V21.1289Z" fill="#A4D3BC"/>
<path d="M13.7442 4.4703C13.7442 4.4703 14.8251 5.80939 14.2839 9.33795C13.7426 12.8665 12.0798 14.4565 12.0798 14.4565H16.1336C16.1336 14.4565 18.3392 13.7592 18.3392 9.24346C18.3392 4.72769 17.3932 4.19336 17.3932 4.19336L13.7442 4.4703Z" fill="#001556"/>
<path d="M20.0947 1.76066C20.0947 1.76066 22.393 3.92732 22.5328 8.26226C22.6661 12.5337 21.408 13.8141 21.408 13.8141H29.8308C29.8308 13.8141 31.1815 11.7827 31.1815 7.71978C31.1815 3.92732 27.2627 1.49023 27.2627 1.49023L20.0947 1.76066Z" fill="#001556"/>
<path d="M15.7711 2.84473H15.095V4.06327H15.7711V2.84473Z" fill="#E9BA5A"/>
<path d="M15.5015 14.8975H14.8253V16.116H15.5015V14.8975Z" fill="#E9BA5A"/>
<path d="M26.7183 0H26.0421V1.21854H26.7183V0Z" fill="#E9BA5A"/>
<path d="M26.7183 14.2217H26.0421V15.4402H26.7183V14.2217Z" fill="#E9BA5A"/>
<path d="M27.5617 17.6267C27.0785 17.6172 26.5984 17.705 26.1497 17.8849C25.701 18.0648 25.293 18.3332 24.9497 18.6742C24.9497 18.6742 25.6502 19.7217 27.3488 19.7217C27.8319 19.731 28.312 19.6431 28.7607 19.4632C29.2093 19.2832 29.6174 19.015 29.9608 18.6742C29.9608 18.6742 29.2586 17.6267 27.5617 17.6267Z" fill="white"/>
<path d="M26.905 18.6772C26.9048 18.608 26.9182 18.5394 26.9445 18.4754C26.9708 18.4113 27.0095 18.3531 27.0582 18.3041C27.107 18.2551 27.1649 18.2162 27.2287 18.1896C27.2926 18.1631 27.361 18.1494 27.43 18.1494C27.5683 18.1539 27.6997 18.2109 27.7975 18.309C27.8953 18.407 27.9522 18.5387 27.9567 18.6772C27.9571 18.7467 27.9438 18.8155 27.9175 18.8797C27.8911 18.944 27.8524 19.0023 27.8034 19.0514C27.7544 19.1005 27.6962 19.1394 27.6321 19.1657C27.568 19.1921 27.4993 19.2055 27.43 19.205C27.0383 19.1969 26.905 18.9688 26.905 18.6772Z" fill="#001556"/>
</svg>
