<svg width="36" height="33" viewBox="0 0 36 33" fill="none" xmlns="http://www.w3.org/2000/svg">
<g clip-path="url(#clip0_3408_947)">
<path d="M17.8333 15.6667C17.8333 13.9526 17.325 12.277 16.3727 10.8517C15.4204 9.4265 14.0669 8.31567 12.4833 7.65971C10.8996 7.00376 9.15706 6.83213 7.47589 7.16653C5.79472 7.50094 4.25047 8.32636 3.03841 9.53841C1.82636 10.7505 1.00094 12.2947 0.666531 13.9759C0.332126 15.6571 0.503755 17.3996 1.15971 18.9833C1.81567 20.5669 2.9265 21.9204 4.35173 22.8727C5.77695 23.825 7.45257 24.3333 9.16667 24.3333C9.16667 22.0348 10.0798 19.8304 11.7051 18.2051C13.3304 16.5798 15.5348 15.6667 17.8333 15.6667Z" fill="#EDE8DD"/>
<path d="M17.8333 17.3333C22.6198 17.3333 26.5 13.4531 26.5 8.66667C26.5 3.8802 22.6198 0 17.8333 0C13.0468 0 9.16663 3.8802 9.16663 8.66667C9.16663 13.4531 13.0468 17.3333 17.8333 17.3333Z" fill="#A4D3BC"/>
<path d="M26.5 24.3333C31.2865 24.3333 35.1667 20.4531 35.1667 15.6667C35.1667 10.8802 31.2865 7 26.5 7C21.7136 7 17.8334 10.8802 17.8334 15.6667C17.8334 20.4531 21.7136 24.3333 26.5 24.3333Z" fill="#E9BA5A"/>
<path d="M17.8333 15.667C17.8333 16.8051 17.6091 17.9321 17.1736 18.9836C16.738 20.0351 16.0997 20.9905 15.2949 21.7952C14.4901 22.6 13.5347 23.2384 12.4832 23.6739C11.4317 24.1095 10.3047 24.3337 9.16663 24.3337C9.16663 26.0478 9.67492 27.7234 10.6272 29.1486C11.5795 30.5738 12.9331 31.6846 14.5167 32.3406C16.1003 32.9966 17.8429 33.1682 19.5241 32.8338C21.2052 32.4994 22.7495 31.674 23.9615 30.4619C25.1736 29.2499 25.999 27.7056 26.3334 26.0244C26.6678 24.3433 26.4962 22.6007 25.8402 21.0171C25.1843 19.4334 24.0735 18.0799 22.6482 17.1276C21.223 16.1753 19.5474 15.667 17.8333 15.667Z" fill="#001556"/>
<path d="M17.8333 15.667C15.5347 15.667 13.3303 16.5801 11.705 18.2054C10.0797 19.8307 9.16663 22.0351 9.16663 24.3337C10.3047 24.3337 11.4317 24.1095 12.4832 23.6739C13.5347 23.2384 14.4901 22.6 15.2949 21.7952C16.0997 20.9905 16.738 20.0351 17.1736 18.9836C17.6091 17.9321 17.8333 16.8051 17.8333 15.667Z" fill="#EDE8DD"/>
<path d="M17.2968 12.0312C23.2785 12.0312 26.5002 15.7129 26.5002 15.7129C26.5002 15.7129 24.0285 19.3946 18.0452 19.3946C12.0618 19.3946 8.84351 15.7129 8.84351 15.7129C8.84351 15.7129 11.3152 12.0312 17.2968 12.0312Z" fill="white"/>
<path d="M19.6118 15.7264C19.6118 15.4829 19.5638 15.2417 19.4705 15.0168C19.3773 14.7918 19.2406 14.5874 19.0684 14.4153C18.8961 14.2432 18.6916 14.1067 18.4665 14.0136C18.2415 13.9206 18.0003 13.8728 17.7568 13.873C17.2704 13.8893 16.8084 14.0897 16.4643 14.4338C16.1201 14.778 15.9197 15.24 15.9034 15.7264C15.9005 15.9706 15.9465 16.213 16.0386 16.4393C16.1307 16.6656 16.2671 16.8711 16.4397 17.0439C16.6124 17.2168 16.8178 17.3533 17.044 17.4456C17.2702 17.5379 17.5125 17.5841 17.7568 17.5814C19.1368 17.553 19.6118 16.7514 19.6118 15.7264Z" fill="#101C55"/>
</g>
<defs>
<clipPath id="clip0_3408_947">
<rect width="34.6667" height="33" fill="white" transform="translate(0.5)"/>
</clipPath>
</defs>
</svg>
