<svg width="65" height="75" viewBox="0 0 65 75" fill="none" xmlns="http://www.w3.org/2000/svg">
<path d="M51.4789 66.2505L55.8315 62.9198C56.2227 62.6231 56.2936 62.0675 55.9912 61.6808L28.6059 26.3178C28.3071 25.9283 27.7484 25.8571 27.36 26.1573L23.0074 29.488C22.6162 29.7847 22.5453 30.3403 22.8476 30.727L50.2329 66.09C50.5318 66.4795 51.0905 66.5507 51.4789 66.2505Z" fill="#001556"/>
<path d="M33.486 62.4549L47.4108 51.7967L44.1891 47.6373L31.6588 57.2315L33.486 62.4549Z" fill="#001556"/>
<path d="M38.0496 68.347L51.9743 57.6889L48.7527 53.5294L36.2197 63.1201L38.0496 68.347Z" fill="#001556"/>
<path d="M11.7914 9.33187C17.8708 4.68111 26.5911 5.8171 31.2757 11.8633C35.9602 17.9094 34.832 26.5847 28.7561 31.2326C22.683 35.8841 13.9592 34.7509 9.27811 28.702C4.59078 22.6523 5.7183 13.9833 11.7914 9.33187Z" fill="#001556"/>
<path d="M17.6562 16.6869C11.6333 21.4295 11.3325 27.6695 11.3325 27.6695C11.3325 27.6695 16.7601 29.3988 22.7795 24.659C28.7989 19.9192 29.1067 13.6736 29.1067 13.6736C29.1067 13.6736 23.6791 11.9444 17.6562 16.6869Z" fill="white"/>
<path d="M18.2798 22.2246C17.4625 21.1985 17.6352 19.7108 18.6659 18.8992C19.5985 18.1649 21.1927 18.2613 22.01 19.2875C22.8274 20.3136 22.6713 21.8222 21.6239 22.6129C20.2134 23.6781 19.0972 23.2508 18.2798 22.2246Z" fill="#101C55"/>
</svg>
