<svg width="165" height="66" viewBox="0 0 165 66" fill="none" xmlns="http://www.w3.org/2000/svg">
<path d="M17.0623 19.2968C19.8688 18.1747 22.9942 16.915 28.4689 17.0209C34.539 17.1373 38.8018 18.3123 41.2681 20.8952C42.1505 21.7314 42.767 22.7688 43.1178 24.0179C43.4686 25.267 43.6494 27.003 43.6494 29.2365V45.0089C43.6494 49.8041 44.6593 51.773 45.2333 53.0856H34.9429L33.8161 50.1323C32.668 51.1379 28.9366 53.8795 23.8552 53.8795C22.2288 53.8795 18.4868 53.4138 15.7016 50.4287C14.681 49.3384 12.438 46.7132 12.438 41.9179C12.438 37.1015 15.2126 32.8674 20.3578 31.0784C21.9842 30.5068 23.7914 30.221 25.7687 30.221C29.1067 30.221 31.2329 31.6394 33.2208 32.9838V26.2832C33.2208 24.0497 32.7318 22.5042 31.7644 21.6467C30.797 20.7893 29.1918 20.3659 26.9487 20.3659C22.0161 20.3659 19.3691 23.785 16.8497 26.1456L15.9248 26.2726C15.9248 26.2726 16.1374 22.4195 16.4351 20.3447C16.5308 19.7308 16.6158 19.4661 17.0623 19.2968ZM33.0826 36.2018C32.466 35.5878 31.7006 35.1009 30.7864 34.7198C29.8828 34.3493 28.9579 34.1588 28.033 34.1588C26.481 34.1588 25.2372 34.8257 24.2805 36.1594C23.3237 37.4932 22.856 39.3457 22.856 41.7168C22.856 44.035 23.3556 45.8663 24.3442 47.2001C25.3435 48.5339 26.7042 49.2007 28.4264 49.2007C30.6907 49.2007 32.1471 47.4541 33.0719 46.3109V36.2018H33.0826Z" fill="#001556"/>
<path d="M108.478 19.2968C111.285 18.1747 114.41 16.915 119.885 17.0209C125.955 17.1373 130.218 18.3123 132.684 20.8952C133.566 21.7314 134.183 22.7688 134.534 24.0179C134.885 25.267 135.065 27.003 135.065 29.2365V45.0089C135.065 49.8041 136.075 51.773 136.649 53.0856H126.359L125.232 50.1323C124.084 51.1379 120.353 53.8795 115.271 53.8795C113.645 53.8795 109.903 53.4138 107.118 50.4287C106.097 49.3384 103.854 46.7132 103.854 41.9179C103.854 37.1015 106.629 32.8674 111.774 31.0784C113.4 30.5068 115.207 30.221 117.185 30.221C120.523 30.221 122.649 31.6394 124.637 32.9838V26.2832C124.637 24.0497 124.148 22.5042 123.18 21.6467C122.213 20.7893 120.608 20.3659 118.365 20.3659C113.432 20.3659 110.785 23.785 108.266 26.1456L107.341 26.2726C107.341 26.2726 107.553 22.4195 107.851 20.3447C107.947 19.7308 108.032 19.4661 108.478 19.2968ZM124.499 36.2018C123.882 35.5878 123.117 35.1009 122.202 34.7198C121.299 34.3493 120.374 34.1588 119.449 34.1588C117.897 34.1588 116.653 34.8257 115.696 36.1594C114.74 37.4932 114.272 39.3457 114.272 41.7168C114.272 44.035 114.772 45.8663 115.76 47.2001C116.76 48.5339 118.12 49.2007 119.842 49.2007C122.107 49.2007 123.563 47.4541 124.488 46.3109V36.2018H124.499Z" fill="#001556"/>
<path d="M51.5359 4.98576L61.603 0H62.0283V53.0544H51.5359V4.98576Z" fill="#001556"/>
<path d="M143.537 21.4467L152.817 17.0537H153.604V24.4635C154.136 23.8496 157.676 20.0812 158.313 19.446C158.951 18.8109 159.547 18.3346 160.089 18.0064C160.641 17.6783 161.184 17.4454 161.736 17.3183C162.289 17.1913 162.916 17.1172 163.618 17.1172C164.309 17.1172 164.734 17.1384 165 17.1807V28.1896C163.203 26.0937 161.269 24.9822 159.206 24.9822C156.591 24.9822 153.785 27.9144 153.604 28.3908V53.0443H143.526V21.4467H143.537Z" fill="#001556"/>
<path d="M91.8502 44.8396C85.323 43.3788 77.18 43.0718 77.18 39.9914C77.18 38.3401 79.9227 37.4827 80.4861 37.3027C81.4429 37.3768 82.1764 37.4298 82.6654 37.4721C83.2182 37.5144 83.8347 37.5356 84.547 37.5356C90.7659 37.5356 99.3022 34.6881 99.3022 26.5902C99.3022 23.6157 97.8352 20.7576 94.8905 17.9948C96.517 15.8566 98.2711 14.7768 100.163 14.7768C100.907 14.7768 101.131 14.9039 101.482 15.0415V10.5215C101.418 10.5532 101.343 10.5638 101.216 10.585C97.9203 11.2201 95.3796 11.9399 91.8608 16.5552C90.9785 16.1635 88.4272 15.3061 84.8765 15.3061C75.1177 15.3061 70.589 21.1916 70.589 26.188C70.589 32.1582 75.7768 35.2386 77.1375 36.2865C74.6924 37.2498 69.6004 39.3669 69.6004 43.7281C69.6004 47.3801 72.4175 48.6821 73.7569 49.2855C70.8973 50.4922 65.7096 52.8634 65.7096 57.4998C65.7096 60.0827 67.1341 62.1363 69.9937 63.6394C72.8533 65.1425 76.6591 65.9047 81.4216 65.9047C92.5306 65.9047 101.907 62.1151 101.683 54.1336C101.588 52.0801 101.407 46.745 91.8502 44.8396ZM81.496 20.9164C82.3784 19.5827 83.5796 18.9158 85.121 18.9158C88.2358 18.9158 89.7985 21.4774 89.7985 26.5902C89.7985 31.5337 88.2145 34.0001 85.0573 34.0001C83.4733 34.0001 82.272 33.3544 81.4322 32.0629C80.603 30.7715 80.1778 28.8873 80.1778 26.3891C80.1885 24.0815 80.6243 22.2502 81.496 20.9164ZM83.2075 62.6232C80.5286 62.6655 73.4061 61.9457 73.4061 56.6106C73.4061 55.4462 73.6932 54.3136 74.2779 53.2127C74.8625 52.1118 75.6917 51.2015 76.776 50.4605C78.764 50.9368 81.6661 51.6037 85.4719 52.4611C88.7142 53.1915 90.9891 53.8796 92.2861 54.5253C93.583 55.171 94.2315 56.092 94.2315 57.3093C94.2527 58.9606 92.2648 62.475 83.2075 62.6232Z" fill="#001556"/>
<path d="M20.517 12.6068C20.4851 12.6068 20.4639 12.6068 20.432 12.6068C14.7765 12.5644 10.3542 8.15027 10.3223 2.5082C10.3223 2.48703 10.3223 2.46586 10.3223 2.44469C10.3223 2.42351 10.301 2.40234 10.2798 2.40234C10.2585 2.40234 10.2372 2.42351 10.2372 2.44469C10.2372 2.46586 10.2372 2.48703 10.2372 2.5082C10.2053 8.15027 5.78303 12.5644 0.127567 12.6068C0.0956751 12.6068 0.074414 12.6068 0.0425223 12.6068C0.0212611 12.6068 0 12.6279 0 12.6491C0 12.6703 0.0212611 12.6914 0.0425223 12.6914C0.074414 12.6914 0.0956751 12.6914 0.127567 12.6914C5.79366 12.7338 10.216 17.1585 10.2372 22.8112C10.2372 22.8323 10.2372 22.8641 10.2372 22.8853C10.2372 22.9064 10.2585 22.9276 10.2798 22.9276C10.301 22.9276 10.3223 22.9064 10.3223 22.8853C10.3223 22.8641 10.3223 22.8323 10.3223 22.8112C10.3435 17.1585 14.7659 12.7338 20.432 12.6914C20.4639 12.6914 20.4851 12.6914 20.517 12.6914C20.5383 12.6914 20.5595 12.6703 20.5595 12.6491C20.5595 12.6279 20.5383 12.6068 20.517 12.6068Z" fill="#969EB9"/>
</svg>
